<svg width="24" height="24" viewBox="0 0 24 24" fill="none" xmlns="http://www.w3.org/2000/svg">
<path d="M16.5127 18.7898L9.52174 22.0565C8.78902 22.399 7.92046 22.0375 7.64686 21.2765L3.36646 9.372C3.12622 8.70384 3.43462 7.96248 4.07782 7.662L11.0688 4.39536C11.8015 4.05288 12.6701 4.41432 12.9437 5.17536L17.2241 17.0798C17.4643 17.748 17.1559 18.4894 16.5127 18.7898Z" fill="#00D0FF"/>
<path d="M17.7155 13.6076L10.7245 16.8742C9.99177 17.2167 9.12322 16.8553 8.84962 16.0942L5.99146 8.14544C5.75122 7.47728 6.05962 6.73592 6.70282 6.43544L13.6938 3.1688C14.4265 2.82632 15.2951 3.18776 15.5687 3.9488L18.4268 11.8976C18.6671 12.5658 18.3587 13.3071 17.7155 13.6076Z" fill="#0098FF"/>
<path d="M18.9456 8.50168L11.9546 11.7683C11.2219 12.1108 10.3533 11.7494 10.0797 10.9883L8.61646 6.91888C8.37622 6.25072 8.68462 5.50936 9.32782 5.20888L16.3188 1.94224C17.0515 1.59976 17.9201 1.9612 18.1937 2.72224L19.6569 6.79168C19.8972 7.45984 19.5888 8.2012 18.9456 8.50168Z" fill="#0052FF"/>
<path d="M4.07812 7.66243L4.32605 7.57363C5.04029 7.31683 5.82773 7.68763 6.08453 8.40187L6.11309 8.48107L7.21277 7.85059L6.70397 6.43555L4.07837 7.66243H4.07812Z" fill="#0098FF"/>
<path d="M6.70312 6.43586L6.95105 6.34706C7.66529 6.09026 8.45273 6.46106 8.70953 7.1753L8.73809 7.2545L9.83777 6.62402L9.32897 5.20898L6.70337 6.43586H6.70312Z" fill="#0052FF"/>
</svg>
