<svg xmlns="http://www.w3.org/2000/svg" width="118" height="31" viewBox="0 0 118 31" fill="none">
  <g clip-path="url(#clip0_2547_1481)">
    <path d="M34.5332 22.0855V9.36502C34.5332 8.113 35.0864 7.34509 36.6119 7.34509H44.7423V9.4151H36.7963V14.4065H44.2394V16.4765H36.7963V22.0855H34.5332Z" fill="white"/>
    <path d="M49.6539 6.36023V22.0856H47.4746V6.36023H49.6539Z" fill="white"/>
    <path d="M52.5215 16.6268C52.5215 13.5218 54.7511 11.0011 58.0032 11.0011C61.2554 11.0011 63.3006 13.3549 63.3006 16.3597V17.2445H54.6505C54.9019 19.0975 56.3101 20.3829 58.2547 20.3829C59.579 20.3829 60.7692 19.8153 61.4063 18.6301L63.0826 19.4814C62.1271 21.3344 60.3837 22.3194 58.2715 22.3194C54.969 22.3194 52.5215 19.9489 52.5215 16.6268ZM61.1213 15.8422C61.0375 14.1228 59.7802 12.9542 57.9865 12.9542C56.1927 12.9542 54.969 14.223 54.7343 15.8422H61.1213Z" fill="white"/>
    <path d="M65.3945 22.0856L68.127 17.9957C68.4623 17.5116 68.6132 17.0942 68.6132 16.6936C68.6132 16.3263 68.4791 15.9424 68.1773 15.4916L65.3945 11.3182H67.8756L70.0884 14.5902C70.3063 14.9241 70.4907 15.2913 70.5745 15.6753H71.748C71.8653 15.308 72.0162 14.9241 72.2341 14.5902L74.4134 11.3182H76.9112L74.1284 15.4916C73.8267 15.9591 73.6926 16.3263 73.6926 16.6936C73.6926 17.0942 73.8435 17.5116 74.1787 17.9957L76.9112 22.0856H74.4302L72.2174 18.8304C71.9659 18.4631 71.7983 18.0624 71.6809 17.6451H70.5913C70.4739 18.0624 70.3063 18.4631 70.0549 18.8304L67.842 22.0856H65.3945Z" fill="white"/>
    <path d="M79.543 24.4394L81.3535 23.4545C81.9737 24.623 83.1807 25.3075 84.6727 25.3075C86.9693 25.3075 88.1595 23.588 88.1595 21.2676V20.3161C87.5225 21.518 86.3658 22.2525 84.7397 22.2525C81.4205 22.2525 79.8112 20.0824 79.8112 16.9106V11.3182H81.9737V16.7937C81.9737 18.8137 83.0298 20.1992 84.9912 20.1992C86.9525 20.1992 88.126 18.6133 88.126 16.6435V11.3182H90.3388V21.2342C90.3388 24.84 88.2098 27.3274 84.7062 27.3274C82.4096 27.3274 80.4985 26.3592 79.543 24.4394Z" fill="white"/>
    <path d="M94.3789 22.0855V7.34509H99.0728C103.046 7.34509 105.627 9.13131 105.627 12.5535C105.627 15.9757 102.995 17.8287 99.1733 17.8287H96.6085V22.0688L94.3789 22.0855ZM96.6253 9.4151V15.742H99.1398C101.571 15.742 103.314 14.7904 103.314 12.5535C103.314 10.3166 101.638 9.4151 99.1398 9.4151H96.6253Z" fill="white"/>
    <path d="M107.238 16.6268C107.238 13.5218 109.468 11.0011 112.72 11.0011C115.972 11.0011 118.001 13.3549 118.001 16.3597V17.2445H109.351C109.602 19.0975 111.01 20.3829 112.955 20.3829C114.279 20.3829 115.469 19.8153 116.106 18.6301L117.783 19.4814C116.827 21.3344 115.084 22.3194 112.971 22.3194C109.686 22.3194 107.238 19.9489 107.238 16.6268ZM115.821 15.8422C115.738 14.1228 114.48 12.9542 112.686 12.9542C110.893 12.9542 109.669 14.223 109.434 15.8422H115.821Z" fill="white"/>
    <path d="M20.2172 25.8417L9.53874 30.8164C8.41557 31.3339 7.09123 30.783 6.67214 29.6311L0.117516 11.5019C-0.251286 10.4836 0.218099 9.36512 1.20716 8.8977L11.9024 3.92301C13.0256 3.40551 14.3499 3.9564 14.769 5.10826L21.3069 23.2208C21.6757 24.2558 21.2063 25.3743 20.2172 25.8417Z" fill="#00D0FF"/>
    <path d="M22.0614 17.9456L11.3829 22.9203C10.2597 23.4378 8.93538 22.8869 8.51629 21.735L4.14095 9.63215C3.77215 8.61384 4.24154 7.47868 5.2306 7.02795L15.9091 2.05326C17.0323 1.53576 18.3566 2.08665 18.7757 3.23851L23.1343 15.3414C23.5031 16.3597 23.0337 17.4948 22.0614 17.9456Z" fill="#0098FF"/>
    <path d="M23.9383 10.1831L13.2598 15.1578C12.1366 15.6753 10.8122 15.1244 10.3932 13.9726L8.14681 7.77925C7.77801 6.76094 8.2474 5.64247 9.23646 5.17505L19.915 0.200357C21.0381 -0.317144 22.3625 0.233744 22.7816 1.3856L25.0111 7.57892C25.3799 8.59723 24.9106 9.7157 23.9383 10.1831Z" fill="#0052FF"/>
    <path d="M1.20703 8.89773L1.5926 8.76418C2.68224 8.38023 3.88923 8.93112 4.2748 10.0162L4.32509 10.1331L6.00146 9.16483L5.23033 7.01135L1.20703 8.89773Z" fill="#0098FF"/>
    <path d="M5.23047 7.04473L5.61603 6.91118C6.70568 6.52723 7.91267 7.07812 8.29823 8.1632L8.34853 8.28006L10.0249 7.31183L9.237 5.17505L5.23047 7.04473Z" fill="#0052FF"/>
  </g>
  <defs>
    <clipPath id="clip0_2547_1481">
      <rect width="118" height="31" fill="white"/>
    </clipPath>
  </defs>
</svg>